<svg width="119" height="45" viewBox="0 0 119 45" fill="none" xmlns="http://www.w3.org/2000/svg">
<g clip-path="url(#clip0)">
<path d="M96.2858 -0.000154848H22.7121C19.7089 -0.0322589 16.7291 0.52601 13.9452 1.64234C11.1613 2.75867 8.62843 4.4109 6.49331 6.50341C4.35819 8.59591 2.66318 11.0871 1.50636 13.8329C0.349549 16.5787 -0.246094 19.5245 -0.246094 22.4998C-0.246094 25.4752 0.349549 28.421 1.50636 31.1668C2.66318 33.9125 4.35819 36.4038 6.49331 38.4963C8.62843 40.5888 11.1613 42.241 13.9452 43.3574C16.7291 44.4737 19.7089 45.032 22.7121 44.9999H96.2858C99.289 45.032 102.269 44.4737 105.053 43.3574C107.837 42.241 110.37 40.5888 112.505 38.4963C114.64 36.4038 116.335 33.9125 117.492 31.1668C118.648 28.421 119.244 25.4752 119.244 22.4998C119.244 19.5245 118.648 16.5787 117.492 13.8329C116.335 11.0871 114.64 8.59591 112.505 6.50341C110.37 4.4109 107.837 2.75867 105.053 1.64234C102.269 0.52601 99.289 -0.0322589 96.2858 -0.000154848Z" fill="#BB44A3"/>
<path d="M96.2871 3.33203C101.379 3.39101 106.243 5.43642 109.823 9.02464C113.403 12.6129 115.41 17.4546 115.41 22.4997C115.41 27.5448 113.403 32.3865 109.823 35.9747C106.243 39.5629 101.379 41.6083 96.2871 41.6673H84.0724C78.9802 41.6083 74.1167 39.5629 70.5368 35.9747C66.9569 32.3865 64.9492 27.5448 64.9492 22.4997C64.9492 17.4546 66.9569 12.6129 70.5368 9.02464C74.1167 5.43642 78.9802 3.39101 84.0724 3.33203H96.2871Z" fill="white"/>
<path d="M84.7861 19.4124C85.2603 19.8473 85.4975 20.5302 85.4975 21.4611V26.9365H84.527L84.2625 25.7942H84.2017C83.893 26.201 83.501 26.5384 83.0514 26.7845C82.5539 27.0078 82.0102 27.111 81.4647 27.0858C80.7945 27.116 80.1362 26.9026 79.6136 26.4859C79.1429 26.085 78.9102 25.4903 78.9102 24.6992C78.9102 23.0627 80.2068 22.2078 82.8001 22.1344L84.1779 22.0899V21.6104C84.1779 20.9712 84.0369 20.5136 83.7548 20.2377C83.4098 19.9428 82.9611 19.795 82.5066 19.8264C82.1243 19.8265 81.744 19.8812 81.3774 19.9888C80.9841 20.1107 80.5997 20.2596 80.2271 20.4342L79.8172 19.4439C80.2327 19.2334 80.6698 19.0674 81.1209 18.9487C81.5994 18.8207 82.0929 18.7555 82.5886 18.7549C83.5776 18.7549 84.3101 18.9723 84.7861 19.4072V19.4124ZM80.9199 23.515C80.7223 23.6455 80.5625 23.8249 80.4563 24.0353C80.3501 24.2457 80.3012 24.48 80.3144 24.7149C80.301 24.897 80.3303 25.0798 80.4 25.2489C80.4697 25.4179 80.578 25.5687 80.7163 25.6894C81.0258 25.9234 81.4092 26.0404 81.7979 26.0195C82.4291 26.0493 83.0482 25.8405 83.53 25.4353C83.7588 25.2147 83.9364 24.9474 84.0505 24.652C84.1647 24.3566 84.2126 24.0402 84.1911 23.7246V23.0042L82.9826 23.0539C82.0042 23.0959 81.3131 23.2513 80.9094 23.5203" fill="#181A26"/>
<path d="M88.4485 26.02C87.8544 25.3109 87.5565 24.2813 87.5547 22.9313C87.5529 21.5812 87.8535 20.5455 88.4564 19.8242C88.7525 19.4696 89.1274 19.1877 89.5518 19.0004C89.9761 18.8132 90.4384 18.7257 90.9026 18.7449C91.3875 18.7227 91.8705 18.8194 92.3087 19.0264C92.747 19.2335 93.1269 19.5444 93.4148 19.9316H93.5073C93.4534 19.5382 93.4225 19.1419 93.4148 18.7449V15.5356H94.737V26.9369H93.6633L93.465 25.855H93.4042C92.8312 26.6741 91.9885 27.0845 90.8761 27.0863C90.4143 27.1064 89.954 27.0206 89.5311 26.8357C89.1082 26.6507 88.7341 26.3716 88.4379 26.02H88.4485ZM92.8832 25.3074C93.2358 24.8551 93.4121 24.1477 93.4121 23.1854V22.947C93.4121 21.8991 93.2358 21.1184 92.8832 20.6049C92.5368 20.0967 91.9286 19.8399 91.0586 19.8399C90.7417 19.825 90.4264 19.8935 90.145 20.0384C89.8635 20.1834 89.6258 20.3996 89.456 20.6652C89.107 21.2101 88.9324 21.9751 88.9324 22.9601C88.9324 23.9294 89.1149 24.6787 89.4798 25.2026C89.6582 25.4609 89.901 25.669 90.1846 25.8067C90.4682 25.9444 90.7829 26.0071 91.0982 25.9886C91.9356 25.9886 92.5342 25.7606 92.8938 25.3048" fill="#181A26"/>
<path d="M101.743 26.478C101.169 26.8841 100.376 27.0858 99.3628 27.0858C98.4834 27.1204 97.6089 26.9405 96.8162 26.5619V25.3751C97.2096 25.566 97.6205 25.7195 98.0432 25.8336C98.4823 25.955 98.9359 26.0175 99.3919 26.0196C99.8971 26.0549 100.402 25.9458 100.846 25.7052C100.985 25.6165 101.1 25.4957 101.182 25.3532C101.263 25.2107 101.308 25.0508 101.313 24.8872C101.319 24.7235 101.284 24.5611 101.211 24.4138C101.139 24.2665 101.032 24.1388 100.899 24.0416C100.409 23.7147 99.8748 23.4572 99.3125 23.2766C98.8233 23.0979 98.3478 22.8843 97.8898 22.6374C97.5738 22.4631 97.3024 22.2194 97.0965 21.9248C96.8357 21.5024 96.7452 20.998 96.8433 20.5124C96.9413 20.0268 97.2206 19.5956 97.6254 19.3051C98.2901 18.8987 99.0639 18.7022 99.8441 18.7418C100.736 18.7404 101.618 18.9251 102.433 19.2841L101.978 20.332C101.277 20.0185 100.52 19.8457 99.7515 19.8238C99.3219 19.7994 98.8935 19.8899 98.5113 20.0858C98.3779 20.1517 98.266 20.2535 98.1884 20.3795C98.1107 20.5056 98.0705 20.6507 98.0723 20.7983C98.0661 21.0026 98.1357 21.2021 98.268 21.359C98.4464 21.549 98.6624 21.7007 98.9026 21.8043C99.3194 22.0017 99.7467 22.1766 100.183 22.3283C100.852 22.5488 101.478 22.8811 102.034 23.3107C102.228 23.4884 102.38 23.7065 102.478 23.9493C102.577 24.1921 102.62 24.4536 102.605 24.7149C102.623 25.0572 102.553 25.3985 102.402 25.7069C102.251 26.0152 102.023 26.2805 101.74 26.478" fill="#181A26"/>
<path d="M32.118 12.7112C31.6706 12.7055 31.2267 12.7902 30.8135 12.96C30.4002 13.1298 30.0262 13.3812 29.7142 13.6989L25.327 18.0425L20.9425 13.6989C20.6299 13.3812 20.2554 13.1299 19.8417 12.9601C19.4281 12.7903 18.9838 12.7056 18.5361 12.7112C18.0902 12.7112 17.6487 12.7982 17.2367 12.9673C16.8247 13.1363 16.4504 13.3841 16.1351 13.6964C15.8198 14.0088 15.5697 14.3796 15.3991 14.7877C15.2285 15.1959 15.1406 15.6333 15.1406 16.075V28.5111C15.1406 29.4032 15.4984 30.2588 16.1351 30.8897C16.7719 31.5205 17.6356 31.8749 18.5361 31.8749C19.4366 31.8749 20.3003 31.5205 20.937 30.8897C21.5738 30.2588 21.9316 29.4032 21.9316 28.5111V22.69L25.327 26.0538L28.7225 22.69V28.5111C28.7472 29.3873 29.1159 30.2195 29.7502 30.8306C30.3845 31.4417 31.2345 31.7836 32.1193 31.7836C33.0041 31.7836 33.854 31.4417 34.4884 30.8306C35.1227 30.2195 35.4914 29.3873 35.5161 28.5111V16.075C35.5161 15.633 35.4282 15.1954 35.2573 14.7871C35.0865 14.3788 34.8362 14.0079 34.5206 13.6955C34.205 13.3831 33.8304 13.1354 33.4182 12.9665C33.0059 12.7976 32.5641 12.7109 32.118 12.7112Z" fill="#181A26"/>
<path d="M55.3736 13.6906C54.7384 13.0618 53.8771 12.7085 52.9791 12.7085C52.0811 12.7085 51.2198 13.0618 50.5845 13.6906L46.7845 17.4553L42.9818 13.6906C42.3413 13.0881 41.4885 12.7573 40.6054 12.7686C39.7222 12.78 38.8784 13.1326 38.2539 13.7513C37.6294 14.37 37.2734 15.2059 37.262 16.0808C37.2506 16.9558 37.5845 17.8005 38.1927 18.4351L43.3864 23.5777V28.5055C43.411 29.3817 43.7797 30.2139 44.4141 30.825C45.0484 31.4361 45.8983 31.778 46.7832 31.778C47.668 31.778 48.5179 31.4361 49.1522 30.825C49.7866 30.2139 50.1553 29.3817 50.1799 28.5055V23.5777L55.3736 18.4298C56.0084 17.8005 56.365 16.9473 56.365 16.0576C56.365 15.1679 56.0084 14.3147 55.3736 13.6854" fill="#181A26"/>
</g>
<defs>
<clipPath id="clip0">
<rect width="119" height="45" fill="white"/>
</clipPath>
</defs>
</svg>
