<svg xmlns="http://www.w3.org/2000/svg" width="140" height="50" fill="none" viewBox="0 0 140 50">
    <rect width="140" height="50" fill="#FF8600" rx="25"/>
    <rect width="63" height="40" x="72" y="5" fill="#fff" rx="20"/>
    <path fill="#181A26" d="M37.498 15c-.93-.014-1.826.35-2.48 1.007l-4.515 4.508-4.515-4.508c-.656-.655-1.55-1.018-2.48-1.007-1.935 0-3.503 1.56-3.503 3.482v12.85c-.07 1.286.581 2.506 1.692 3.17 1.111.664 2.5.664 3.61 0 1.112-.664 1.763-1.884 1.693-3.17v-6.038l3.503 3.471 3.492-3.47v6.036c0 1.244.668 2.394 1.751 3.015 1.084.622 2.419.622 3.503 0 1.083-.621 1.751-1.77 1.751-3.015V18.482C41 16.559 39.432 15 37.498 15M61.96 16.036C61.297 15.373 60.395 15 59.455 15c-.94 0-1.842.373-2.507 1.036l-4.027 3.976-3.976-3.976c-1.4-1.284-3.565-1.238-4.908.105-1.344 1.342-1.385 3.503-.095 4.896l5.434 5.412v5.196c.102 1.881 1.661 3.355 3.55 3.355 1.889 0 3.448-1.474 3.55-3.355v-5.186l5.486-5.411c1.386-1.385 1.386-3.627 0-5.012M92.15 21.536c1.11 0 1.899.197 2.368.592.48.384.72.928.72 1.632v4.768c0 .31.144.464.432.464.139 0 .278-.027.416-.08v1.056c-.266.15-.592.224-.976.224-.373 0-.661-.107-.864-.32-.192-.213-.288-.533-.288-.96-.725.853-1.696 1.28-2.912 1.28-.853 0-1.525-.203-2.016-.608-.48-.405-.72-.976-.72-1.712 0-.747.24-1.333.72-1.76.448-.437 1.563-.768 3.344-.992.395-.043.699-.107.912-.192.224-.085.379-.192.464-.32.096-.139.144-.31.144-.512 0-.459-.149-.8-.448-1.024-.298-.224-.762-.336-1.392-.336-.672 0-1.178.128-1.52.384-.33.256-.512.65-.544 1.184h-1.36c.043-.917.363-1.605.96-2.064.608-.47 1.462-.704 2.56-.704zm-2.4 6.24c0 .384.139.683.416.896.288.213.683.32 1.184.32.502 0 .944-.085 1.328-.256.384-.181.678-.41.88-.688.214-.288.32-.587.32-.896v-1.424c-.106.075-.25.144-.432.208-.17.064-.346.107-.528.128l-1.392.208c-.608.085-1.056.25-1.344.496-.288.245-.432.581-.432 1.008zm8.962-.416c0 .32.07.603.208.848.139.245.33.437.576.576.256.139.555.208.896.208.523 0 .965-.107 1.328-.32.363-.213.64-.512.832-.896.192-.384.288-.827.288-1.328v-4.72h1.36V30h-1.28v-1.312h-.032c-.565 1.003-1.461 1.504-2.688 1.504-.96 0-1.675-.245-2.144-.736-.47-.49-.704-1.227-.704-2.208v-5.52h1.36v5.632zm9.419-5.632h1.648v1.2h-1.648v5.184c0 .213.032.373.096.48.074.107.181.165.32.176.362.021.645.032.848.032h.384V30h-1.12c-.502 0-.891-.053-1.168-.16-.267-.117-.454-.299-.56-.544-.107-.245-.16-.587-.16-1.024v-5.344h-1.408v-1.2h1.408v-2.48h1.36v2.48zm6.539-.192c.832 0 1.547.187 2.144.56.608.363 1.072.875 1.392 1.536.32.65.48 1.397.48 2.24 0 .843-.165 1.595-.496 2.256-.331.65-.8 1.157-1.408 1.52-.608.363-1.312.544-2.112.544s-1.504-.176-2.112-.528c-.597-.352-1.067-.853-1.408-1.504-.331-.661-.496-1.424-.496-2.288 0-.875.16-1.637.48-2.288.331-.65.795-1.152 1.392-1.504.608-.363 1.323-.544 2.144-.544zm-2.576 4.336c0 .619.107 1.163.32 1.632.224.47.528.837.912 1.104.395.256.843.384 1.344.384.491 0 .933-.128 1.328-.384.395-.267.699-.635.912-1.104.224-.47.336-1.013.336-1.632s-.112-1.163-.336-1.632c-.224-.48-.533-.848-.928-1.104-.384-.267-.827-.4-1.328-.4-.48 0-.917.128-1.312.384-.384.256-.688.624-.912 1.104-.224.47-.336 1.019-.336 1.648z"/>
</svg>
