<svg xmlns="http://www.w3.org/2000/svg" width="150" height="50" fill="none" viewBox="0 0 150 50">
    <path fill="#29B24E" d="M125 0H25C11.193 0 0 11.193 0 25s11.193 25 25 25h100c13.807 0 25-11.193 25-25S138.807 0 125 0z"/>
    <path fill="#181A26" fill-rule="evenodd" d="M36.175 14.133c-1.041 0-1.976.398-2.662 1.105l-4.851 4.85-4.852-4.85c-.685-.707-1.622-1.105-2.662-1.105-2.075 0-3.757 1.683-3.757 3.758v13.887c0 2.075 1.683 3.757 3.758 3.757s3.757-1.682 3.757-3.757v-6.5l3.756 3.755 3.755-3.756v6.5c0 2.076 1.681 3.758 3.756 3.758 2.075 0 3.757-1.682 3.757-3.757V17.89c0-2.076-1.681-3.758-3.757-3.758h.002zm25.722 1.096c-1.463-1.463-3.835-1.463-5.298 0l-4.206 4.206-4.205-4.206c-1.463-1.463-3.836-1.463-5.299 0-1.463 1.463-1.463 3.834 0 5.299l5.748 5.746v5.504c0 2.075 1.681 3.758 3.756 3.758 2.075 0 3.758-1.683 3.758-3.758v-5.504l5.746-5.746c1.463-1.465 1.463-3.836 0-5.299" clip-rule="evenodd"/>
    <path fill="#fff" d="M125.002 4.348H93.481c-11.406 0-20.653 9.246-20.653 20.652 0 11.405 9.247 20.652 20.653 20.652h31.521c11.406 0 20.652-9.247 20.652-20.652 0-11.406-9.246-20.652-20.652-20.652z"/>
    <path fill="#26262A" d="M91.011 30.434V25.52h4.413v4.914h1.446V19.95h-1.446v4.382h-4.413V19.95h-1.445v10.484h1.445zm11.824.185c.741 0 1.38-.177 1.918-.527.537-.35.948-.842 1.232-1.476.284-.633.426-1.367.426-2.197 0-1.29-.312-2.31-.935-3.06-.624-.75-1.5-1.126-2.625-1.126-.75 0-1.395.175-1.933.525-.537.35-.948.842-1.233 1.476-.283.633-.425 1.367-.425 2.198 0 1.29.314 2.309.943 3.059s1.507 1.126 2.632 1.126v.002zm0-1.128c-1.379 0-2.069-1.018-2.069-3.058 0-2.05.695-3.074 2.085-3.074 1.368 0 2.054 1.019 2.054 3.058 0 2.05-.69 3.074-2.07 3.074zm7.243.943v-5.69c.306-.477.595-.832.869-1.066.273-.233.613-.35 1.019-.35.75 0 1.125.518 1.125 1.553v5.553h1.4v-5.69c.316-.487.61-.845.883-1.073.274-.229.61-.342 1.004-.342.752 0 1.127.517 1.127 1.553v5.552h1.4v-5.75c0-.75-.198-1.347-.593-1.79-.396-.44-.923-.66-1.584-.66-.517 0-.966.124-1.346.373-.381.248-.727.605-1.042 1.072-.153-.455-.404-.81-.754-1.066-.35-.252-.774-.379-1.27-.379-.943 0-1.714.452-2.313 1.356l-.122-1.173h-1.203v8.019h1.4v-.002zm14.549.185c1.013 0 1.947-.336 2.8-1.006l-.609-.837c-.356.244-.695.422-1.02.533-.324.11-.679.168-1.066.168-.608 0-1.105-.208-1.491-.624-.385-.416-.607-1.066-.668-1.948h5.112c.021-.244.031-.482.031-.715 0-1.237-.284-2.207-.852-2.908-.569-.699-1.386-1.049-2.45-1.049-.68 0-1.271.183-1.773.547-.502.366-.888.87-1.157 1.514s-.403 1.383-.403 2.215c0 1.278.312 2.282.935 3.014.625.73 1.495 1.094 2.611 1.094v.002zm1.704-4.75h-3.758c.101-1.683.724-2.525 1.871-2.525.629 0 1.101.207 1.416.623.314.416.471 1.02.471 1.81v.093-.001z"/>
</svg>
