<svg xmlns="http://www.w3.org/2000/svg" width="136" height="50" fill="none" viewBox="0 0 136 50">
    <path fill="#10BBE8" d="M110.707 0H25.006C11.196 0 0 11.195 0 25.006.012 38.805 11.207 50 25.006 50h85.701c13.811 0 25.006-11.195 25.006-25.006C135.713 11.195 124.518 0 110.707 0z"/>
    <path fill="#fff" d="M110.706 3.708c11.741 0 21.297 9.556 21.297 21.298 0 11.741-9.556 21.297-21.297 21.297H92.559c-11.741 0-21.297-9.556-21.297-21.297 0-11.742 9.556-21.297 21.297-21.297h18.147z"/>
    <path fill="#181A26" d="M85.781 33.725V32.54c.372.105.733.163 1.105.163.383 0 .697-.105.906-.314.221-.209.326-.57.326-1.08V20.983h1.465v10.265c0 .86-.21 1.511-.616 1.976-.407.465-1.047.698-1.895.698-.512.011-.942-.058-1.29-.198zm2.465-15.845c.163-.151.372-.232.628-.232.244 0 .441.08.604.232.163.151.244.384.244.698 0 .302-.081.534-.244.697-.163.163-.36.244-.604.244-.256 0-.465-.081-.628-.244-.163-.163-.244-.395-.244-.697 0-.314.081-.547.244-.698zM99.072 28.866c-.745.814-1.768 1.22-3.046 1.22-.79 0-1.5-.185-2.116-.546-.628-.372-1.105-.895-1.453-1.604-.349-.698-.523-1.535-.523-2.5 0-1.464.372-2.604 1.104-3.406.744-.802 1.755-1.209 3.046-1.209.814 0 1.523.175 2.15.547.617.36 1.105.895 1.454 1.58.348.698.511 1.524.511 2.488-.012 1.477-.383 2.616-1.127 3.43zm-5-.884c.43.605 1.082.896 1.977.896.872 0 1.534-.303 1.965-.896.43-.604.65-1.441.65-2.534 0-1.093-.22-1.93-.65-2.51-.43-.582-1.093-.873-1.988-.873-1.733 0-2.604 1.128-2.604 3.383.011 1.081.22 1.93.65 2.534zM103.883 22.181h.082c.593-.883 1.511-1.337 2.767-1.337 1.139 0 2.034.395 2.697 1.186.662.79.988 1.93.988 3.43 0 1.5-.326 2.65-.988 3.44-.663.791-1.558 1.198-2.697 1.198-.651 0-1.209-.116-1.663-.36-.453-.245-.825-.547-1.104-.942h-.116l-.303 1.14H102.5V17.263h1.465v3.08c0 .616-.023 1.221-.082 1.837zm.651.674c-.383.523-.569 1.384-.569 2.558v.07c0 1.162.186 2.01.569 2.569.384.558 1.035.837 1.988.837.791 0 1.384-.29 1.779-.872.395-.581.604-1.43.604-2.558 0-2.255-.802-3.383-2.418-3.383-.93-.011-1.569.245-1.953.78zM117.624 29.424c-.627.453-1.511.674-2.615.674-1.163 0-2.105-.186-2.802-.57v-1.337c.395.198.849.372 1.348.512.5.14.989.209 1.488.209.721 0 1.256-.116 1.605-.349.349-.232.511-.558.511-.965 0-.348-.151-.639-.453-.883-.302-.244-.884-.523-1.744-.849-.663-.256-1.186-.488-1.569-.709-.384-.22-.675-.477-.884-.79-.209-.314-.314-.698-.314-1.163 0-.744.303-1.325.907-1.744.605-.418 1.418-.628 2.441-.628.989 0 1.942.198 2.849.605l-.5 1.163c-.895-.384-1.721-.57-2.453-.57-.593 0-1.047.093-1.372.29-.326.198-.488.454-.488.791 0 .244.069.453.221.628.139.174.372.337.674.488.302.151.779.349 1.407.581.941.36 1.627.721 2.046 1.093.418.372.627.895.627 1.558.012.86-.302 1.511-.93 1.965zM35.361 14.125c-1.034 0-1.964.395-2.65 1.104l-4.825 4.825-4.824-4.836c-.686-.71-1.616-1.105-2.65-1.105-2.07 0-3.744 1.674-3.744 3.744v13.822c0 2.07 1.674 3.732 3.743 3.732 2.07 0 3.744-1.674 3.744-3.732v-6.464l3.731 3.744 3.732-3.744v6.464c0 2.07 1.674 3.732 3.743 3.732 2.07 0 3.744-1.674 3.744-3.732V17.857c0-2.058-1.674-3.732-3.744-3.732zM60.961 15.217c-1.453-1.453-3.813-1.453-5.278 0l-4.185 4.185-4.185-4.185c-1.453-1.453-3.813-1.453-5.278 0-1.453 1.454-1.453 3.813 0 5.278l5.72 5.72v5.475c0 2.07 1.674 3.744 3.743 3.744 2.07 0 3.743-1.674 3.743-3.744v-5.475l5.72-5.72c1.453-1.465 1.453-3.825 0-5.278z"/>
</svg>
