<svg xmlns="http://www.w3.org/2000/svg" width="160" height="50" fill="none" viewBox="0 0 160 50">
    <path fill="#FFD102" d="M0 25C0 11.193 11.193 0 25 0h110c13.807 0 25 11.193 25 25s-11.193 25-25 25H25C11.193 50 0 38.807 0 25z"/>
    <path fill="#fff" d="M72 25c0-11.046 8.954-20 20-20h43c11.046 0 20 8.954 20 20s-8.954 20-20 20H92c-11.046 0-20-8.954-20-20z"/>
    <path fill="#181A26" d="M37.498 15c-.93-.014-1.826.35-2.48 1.007l-4.515 4.508-4.515-4.508c-.656-.655-1.55-1.018-2.48-1.007-1.935 0-3.503 1.56-3.503 3.482v12.85c-.07 1.286.581 2.506 1.692 3.17 1.111.664 2.5.664 3.61 0 1.112-.664 1.763-1.884 1.693-3.17v-6.038l3.503 3.471 3.492-3.47v6.036c0 1.244.668 2.394 1.751 3.015 1.084.622 2.419.622 3.503 0 1.083-.621 1.751-1.77 1.751-3.015V18.482C41 16.559 39.432 15 37.498 15M61.96 16.036C61.297 15.373 60.395 15 59.455 15c-.94 0-1.842.373-2.507 1.036l-4.027 3.976-3.976-3.976c-1.4-1.284-3.565-1.238-4.908.105-1.344 1.342-1.385 3.503-.095 4.896l5.434 5.412v5.196c.102 1.881 1.661 3.355 3.55 3.355 1.889 0 3.448-1.474 3.55-3.355v-5.186l5.486-5.411c1.386-1.385 1.386-3.627 0-5.012M95.593 28.176l3.616-9.6h2.08V30h-1.44v-9.504h-.032L96.249 30h-1.296l-3.568-9.504h-.032V30h-1.44V18.576h2.08l3.6 9.6zm11.393-6.64c1.11 0 1.899.197 2.368.592.48.384.72.928.72 1.632v4.768c0 .31.144.464.432.464.139 0 .278-.027.416-.08v1.056c-.266.15-.592.224-.976.224-.373 0-.661-.107-.864-.32-.192-.213-.288-.533-.288-.96-.725.853-1.696 1.28-2.912 1.28-.853 0-1.525-.203-2.016-.608-.48-.405-.72-.976-.72-1.712 0-.747.24-1.333.72-1.76.448-.437 1.563-.768 3.344-.992.395-.043.699-.107.912-.192.224-.085.379-.192.464-.32.096-.139.144-.31.144-.512 0-.459-.149-.8-.448-1.024-.298-.224-.762-.336-1.392-.336-.672 0-1.178.128-1.52.384-.33.256-.512.65-.544 1.184h-1.36c.043-.917.363-1.605.96-2.064.608-.47 1.462-.704 2.56-.704zm-2.4 6.24c0 .384.139.683.416.896.288.213.683.32 1.184.32.502 0 .944-.085 1.328-.256.384-.181.678-.41.88-.688.214-.288.32-.587.32-.896v-1.424c-.106.075-.25.144-.432.208-.17.064-.346.107-.528.128l-1.392.208c-.608.085-1.056.25-1.344.496-.288.245-.432.581-.432 1.008zm11.906-6.24v1.44c-1.013 0-1.765.272-2.256.816-.491.544-.736 1.381-.736 2.512V30h-1.36v-8.272h1.28v1.744h.032c.32-.661.709-1.147 1.168-1.456.469-.32 1.029-.48 1.68-.48h.192zm2.464 3.808l3.776-3.616h1.824l-3.28 3.008 3.52 5.264h-1.728l-2.832-4.32-1.28 1.184V30h-1.36V18.576h1.36v6.768zm10.235-3.808c1.184 0 2.106.427 2.768 1.28.65.843.976 1.941.976 3.296v.16h-6.192v.096c0 .523.101.981.304 1.376.213.395.512.704.896.928.394.213.853.32 1.376.32.597 0 1.072-.139 1.424-.416.362-.277.602-.677.72-1.2h1.344c-.182.907-.582 1.605-1.2 2.096-.608.48-1.387.72-2.336.72-.864 0-1.595-.192-2.192-.576-.576-.384-1.019-.923-1.328-1.616-.299-.693-.448-1.424-.448-2.192 0-1.227.362-2.24 1.088-3.04.736-.821 1.669-1.232 2.8-1.232zm2.304 3.536c-.022-.437-.139-.832-.352-1.184-.214-.363-.502-.645-.864-.848-.352-.203-.747-.304-1.184-.304-.427 0-.811.096-1.152.288-.342.192-.619.47-.832.832-.214.352-.336.757-.368 1.216h4.752zm4.737-3.344h1.648v1.2h-1.648v5.184c0 .213.032.373.096.48.075.107.182.165.32.176.363.021.646.032.848.032h.384V30h-1.12c-.501 0-.89-.053-1.168-.16-.266-.117-.453-.299-.56-.544-.106-.245-.16-.587-.16-1.024v-5.344h-1.408v-1.2h1.408v-2.48h1.36v2.48z"/>
</svg>
