<svg xmlns="http://www.w3.org/2000/svg" width="150" height="50" fill="none" viewBox="0 0 150 50">
    <path fill="#076DF2" d="M0 25C0 11.193 11.193 0 25 0h100c13.807 0 25 11.193 25 25s-11.193 25-25 25H25C11.193 50 0 38.807 0 25z"/>
    <path fill="#fff" d="M72 25c0-11.046 8.954-20 20-20h33c11.046 0 20 8.954 20 20s-8.954 20-20 20H92c-11.046 0-20-8.954-20-20z"/>
    <path fill="#181A26" d="M37.498 15c-.93-.014-1.826.35-2.48 1.007l-4.515 4.508-4.515-4.508c-.656-.655-1.55-1.018-2.48-1.007-1.935 0-3.503 1.56-3.503 3.482v12.85c-.07 1.286.581 2.506 1.692 3.17 1.111.664 2.5.664 3.61 0 1.112-.664 1.763-1.884 1.693-3.17v-6.038l3.503 3.471 3.492-3.47v6.036c0 1.244.668 2.394 1.751 3.015 1.084.622 2.419.622 3.503 0 1.083-.621 1.751-1.77 1.751-3.015V18.482C41 16.559 39.432 15 37.498 15M61.96 16.036C61.297 15.373 60.395 15 59.455 15c-.94 0-1.842.373-2.507 1.036l-4.027 3.976-3.976-3.976c-1.4-1.284-3.565-1.238-4.908.105-1.344 1.342-1.385 3.503-.095 4.896l5.434 5.412v5.196c.102 1.881 1.661 3.355 3.55 3.355 1.889 0 3.448-1.474 3.55-3.355v-5.186l5.486-5.411c1.386-1.385 1.386-3.627 0-5.012M95.125 18.576c.693 0 1.296.128 1.808.384s.907.635 1.184 1.136c.288.501.432 1.12.432 1.856s-.144 1.36-.432 1.872c-.277.501-.667.88-1.168 1.136-.49.245-1.067.368-1.728.368h-3.664V30h-1.52V18.576h5.088zm-.432 5.472c.736 0 1.307-.176 1.712-.528.416-.352.624-.875.624-1.568 0-1.397-.81-2.096-2.432-2.096h-3.04v4.192h3.136zm8.887-2.512c1.109 0 1.899.197 2.368.592.48.384.72.928.72 1.632v4.768c0 .31.144.464.432.464.139 0 .277-.027.416-.08v1.056c-.267.15-.592.224-.976.224-.373 0-.661-.107-.864-.32-.192-.213-.288-.533-.288-.96-.725.853-1.696 1.28-2.912 1.28-.853 0-1.525-.203-2.016-.608-.48-.405-.72-.976-.72-1.712 0-.747.24-1.333.72-1.76.448-.437 1.563-.768 3.344-.992.395-.043.699-.107.912-.192.224-.085.379-.192.464-.32.096-.139.144-.31.144-.512 0-.459-.149-.8-.448-1.024-.299-.224-.763-.336-1.392-.336-.672 0-1.179.128-1.52.384-.331.256-.512.65-.544 1.184h-1.36c.043-.917.363-1.605.96-2.064.608-.47 1.461-.704 2.56-.704zm-2.4 6.24c0 .384.139.683.416.896.288.213.683.32 1.184.32.501 0 .944-.085 1.328-.256.384-.181.677-.41.88-.688.213-.288.32-.587.32-.896v-1.424c-.107.075-.251.144-.432.208-.171.064-.347.107-.528.128l-1.392.208c-.608.085-1.056.25-1.344.496-.288.245-.432.581-.432 1.008zm11.906-6.24v1.44c-1.014 0-1.766.272-2.256.816-.491.544-.736 1.381-.736 2.512V30h-1.36v-8.272h1.28v1.744h.032c.32-.661.709-1.147 1.168-1.456.469-.32 1.029-.48 1.68-.48h.192zm2.99.192h1.648v1.2h-1.648v5.184c0 .213.032.373.096.48.075.107.181.165.32.176.363.021.645.032.848.032h.384V30h-1.12c-.501 0-.891-.053-1.168-.16-.267-.117-.453-.299-.56-.544-.107-.245-.16-.587-.16-1.024v-5.344h-1.408v-1.2h1.408v-2.48h1.36v2.48zm5.911-.192c1.099 0 1.92.213 2.464.64.555.427.859 1.077.912 1.952h-1.36v-.016c-.043-.437-.235-.773-.576-1.008-.341-.245-.789-.368-1.344-.368-.544 0-.976.096-1.296.288-.309.181-.464.437-.464.768 0 .299.133.544.4.736.277.192.704.352 1.28.48l1.28.288c.821.181 1.435.459 1.84.832.405.363.608.848.608 1.456 0 .533-.144.997-.432 1.392-.288.395-.699.699-1.232.912-.523.203-1.141.304-1.856.304-1.067 0-1.909-.235-2.528-.704-.608-.48-.933-1.179-.976-2.096h1.36c.011.512.208.907.592 1.184.395.277.939.416 1.632.416.661 0 1.157-.101 1.488-.304.341-.213.512-.523.512-.928 0-.373-.171-.667-.512-.88-.32-.203-1.008-.416-2.064-.64-.704-.15-1.264-.325-1.68-.528-.405-.213-.699-.464-.88-.752-.181-.299-.272-.656-.272-1.072 0-.48.128-.896.384-1.248.267-.352.635-.624 1.104-.816.48-.192 1.019-.288 1.616-.288z"/>
</svg>
