<svg xmlns="http://www.w3.org/2000/svg" width="153" height="50" fill="none" viewBox="0 0 153 50">
    <path fill="#D80303" d="M0 25C0 11.193 11.193 0 25 0h103c13.807 0 25 11.193 25 25s-11.193 25-25 25H25C11.193 50 0 38.807 0 25z"/>
    <path fill="#fff" d="M72 25c0-11.046 8.954-20 20-20h36c11.046 0 20 8.954 20 20s-8.954 20-20 20H92c-11.046 0-20-8.954-20-20z"/>
    <path fill="#181A26" d="M37.498 15c-.93-.014-1.826.35-2.48 1.007l-4.515 4.508-4.515-4.508c-.656-.655-1.55-1.018-2.48-1.007-1.935 0-3.503 1.56-3.503 3.482v12.85c-.07 1.286.581 2.506 1.692 3.17 1.111.664 2.5.664 3.61 0 1.112-.664 1.763-1.884 1.693-3.17v-6.038l3.503 3.471 3.492-3.47v6.036c0 1.244.668 2.394 1.751 3.015 1.084.622 2.419.622 3.503 0 1.083-.621 1.751-1.77 1.751-3.015V18.482C41 16.559 39.432 15 37.498 15M61.96 16.036C61.297 15.373 60.395 15 59.455 15c-.94 0-1.842.373-2.507 1.036l-4.027 3.976-3.976-3.976c-1.4-1.284-3.565-1.238-4.908.105-1.344 1.342-1.385 3.503-.095 4.896l5.434 5.412v5.196c.102 1.881 1.661 3.355 3.55 3.355 1.889 0 3.448-1.474 3.55-3.355v-5.186l5.486-5.411c1.386-1.385 1.386-3.627 0-5.012M92.338 18.304c.843 0 1.579.144 2.208.432.63.277 1.12.688 1.472 1.232.352.544.528 1.195.528 1.952h-1.44c-.17-1.557-1.115-2.336-2.832-2.336-.821 0-1.456.17-1.904.512-.437.341-.656.821-.656 1.44 0 .416.192.784.576 1.104.373.277 1.403.587 3.088.928 1.248.256 2.165.645 2.752 1.168.597.523.896 1.232.896 2.128 0 1.067-.437 1.899-1.312 2.496-.864.608-1.915.912-3.152.912-.917 0-1.733-.155-2.448-.464-.704-.31-1.259-.768-1.664-1.376-.405-.608-.608-1.339-.608-2.192h1.44c0 .576.139 1.072.416 1.488.288.416.683.73 1.184.944.501.213 1.077.32 1.728.32.928 0 1.643-.176 2.144-.528.501-.363.752-.88.752-1.552 0-.373-.101-.688-.304-.944-.192-.256-.523-.48-.992-.672-.459-.203-1.099-.379-1.92-.528-1.632-.32-2.72-.715-3.264-1.184-.555-.49-.832-1.136-.832-1.936 0-.683.176-1.275.528-1.776.363-.512.859-.901 1.488-1.168.63-.267 1.339-.4 2.128-.4zm10.391 3.232c.789 0 1.467.187 2.032.56.576.363 1.013.875 1.312 1.536.309.65.464 1.403.464 2.256 0 .843-.155 1.59-.464 2.24-.299.65-.736 1.157-1.312 1.52-.565.363-1.232.544-2 .544-.544 0-1.056-.107-1.536-.32-.48-.224-.859-.55-1.136-.976h-.032v4.272h-1.36v-11.44h1.36v1.12h.032c.213-.427.549-.752 1.008-.976.459-.224 1.003-.336 1.632-.336zm-2.72 4.32c0 .63.101 1.184.304 1.664.213.47.512.832.896 1.088.395.256.864.384 1.408.384.523 0 .965-.123 1.328-.368.373-.256.656-.624.848-1.104.203-.48.304-1.056.304-1.728 0-.587-.107-1.11-.32-1.568-.203-.47-.501-.832-.896-1.088-.384-.267-.837-.4-1.36-.4-.533 0-.992.133-1.376.4-.373.267-.656.635-.848 1.104-.192.47-.288 1.008-.288 1.616zm11.692-4.32c.832 0 1.547.187 2.144.56.608.363 1.072.875 1.392 1.536.32.65.48 1.397.48 2.24 0 .843-.165 1.595-.496 2.256-.33.65-.8 1.157-1.408 1.52-.608.363-1.312.544-2.112.544s-1.504-.176-2.112-.528c-.597-.352-1.066-.853-1.408-1.504-.33-.661-.496-1.424-.496-2.288 0-.875.16-1.637.48-2.288.331-.65.795-1.152 1.392-1.504.608-.363 1.323-.544 2.144-.544zm-2.576 4.336c0 .619.107 1.163.32 1.632.224.47.528.837.912 1.104.395.256.843.384 1.344.384.491 0 .934-.128 1.328-.384.395-.267.699-.635.912-1.104.224-.47.336-1.013.336-1.632s-.112-1.163-.336-1.632c-.224-.48-.533-.848-.928-1.104-.384-.267-.826-.4-1.328-.4-.48 0-.917.128-1.312.384-.384.256-.688.624-.912 1.104-.224.47-.336 1.019-.336 1.648zm12.5-4.336v1.44c-1.013 0-1.765.272-2.256.816-.491.544-.736 1.381-.736 2.512V30h-1.36v-8.272h1.28v1.744h.032c.32-.661.709-1.147 1.168-1.456.469-.32 1.029-.48 1.68-.48h.192zm2.99.192h1.648v1.2h-1.648v5.184c0 .213.032.373.096.48.075.107.181.165.32.176.363.021.645.032.848.032h.384V30h-1.12c-.501 0-.891-.053-1.168-.16-.267-.117-.453-.299-.56-.544-.107-.245-.16-.587-.16-1.024v-5.344h-1.408v-1.2h1.408v-2.48h1.36v2.48zm5.911-.192c1.099 0 1.92.213 2.464.64.555.427.859 1.077.912 1.952h-1.36v-.016c-.043-.437-.235-.773-.576-1.008-.341-.245-.789-.368-1.344-.368-.544 0-.976.096-1.296.288-.309.181-.464.437-.464.768 0 .299.133.544.4.736.277.192.704.352 1.28.48l1.28.288c.821.181 1.435.459 1.84.832.405.363.608.848.608 1.456 0 .533-.144.997-.432 1.392-.288.395-.699.699-1.232.912-.523.203-1.141.304-1.856.304-1.067 0-1.909-.235-2.528-.704-.608-.48-.933-1.179-.976-2.096h1.36c.011.512.208.907.592 1.184.395.277.939.416 1.632.416.661 0 1.157-.101 1.488-.304.341-.213.512-.523.512-.928 0-.373-.171-.667-.512-.88-.32-.203-1.008-.416-2.064-.64-.704-.15-1.264-.325-1.68-.528-.405-.213-.699-.464-.88-.752-.181-.299-.272-.656-.272-1.072 0-.48.128-.896.384-1.248.267-.352.635-.624 1.104-.816.48-.192 1.019-.288 1.616-.288z"/>
</svg>
