<svg width="28" height="16" viewBox="0 0 28 16" fill="none" xmlns="http://www.w3.org/2000/svg">
<path fill-rule="evenodd" clip-rule="evenodd" d="M4 0C1.79086 0 0 1.79086 0 4V12C0 14.2091 1.79086 16 4 16H23.2C25.4091 16 27.2 14.2091 27.2 12V4C27.2 1.79086 25.4091 0 23.2 0H4ZM20.9002 5.01127C20.5354 4.87047 20.1034 4.80007 19.6042 4.80007C19.1434 4.80007 18.7306 4.88006 18.3658 5.04006C18.001 5.19367 17.7162 5.41767 17.5114 5.71207C17.3066 6.00006 17.2042 6.33606 17.2042 6.72006C17.2042 7.21926 17.3578 7.63207 17.665 7.95847C17.9786 8.28487 18.5034 8.56007 19.2394 8.78407C19.5658 8.88647 19.8154 8.98246 19.9882 9.07207C20.161 9.16166 20.2826 9.26406 20.353 9.37926C20.4234 9.48806 20.4586 9.62567 20.4586 9.79207C20.4586 10.0481 20.3626 10.2497 20.1706 10.3969C19.985 10.5377 19.729 10.6081 19.4026 10.6081C19.0826 10.6081 18.785 10.5537 18.5098 10.4449C18.241 10.3361 17.9786 10.1729 17.7226 9.95527L16.9258 10.8289C17.2266 11.1169 17.585 11.3473 18.001 11.5201C18.4234 11.6929 18.9066 11.7793 19.4506 11.7793C19.9946 11.7793 20.465 11.6929 20.8618 11.5201C21.2586 11.3409 21.5626 11.0945 21.7738 10.7809C21.985 10.4609 22.0906 10.0929 22.0906 9.67687C22.0906 9.09447 21.9306 8.64647 21.6106 8.33287C21.2906 8.01287 20.7914 7.74407 20.113 7.52646C19.7546 7.41126 19.4858 7.31207 19.3066 7.22887C19.1274 7.14567 19.0026 7.05927 18.9322 6.96967C18.8618 6.87366 18.8266 6.75207 18.8266 6.60487C18.8266 6.39367 18.9066 6.23367 19.0666 6.12487C19.2266 6.00967 19.4442 5.95206 19.7194 5.95206C20.2378 5.95206 20.7242 6.13767 21.1786 6.50887L21.9082 5.65446C21.6074 5.36647 21.2714 5.15207 20.9002 5.01127ZM6.76696 10.1857L6.43096 11.6161H4.79896L6.80536 4.96327H8.71576L10.7222 11.6161H9.05176L8.70616 10.1857H6.76696ZM8.43736 9.04327L7.73656 6.10567L7.03576 9.04327H8.43736ZM13.0631 4.96327C14.1063 4.96327 14.9415 5.20007 15.5687 5.67367C16.2023 6.14087 16.5191 7.00167 16.5191 8.25607C16.5191 9.49127 16.2119 10.3617 15.5975 10.8673C14.9831 11.3665 14.1863 11.6161 13.2071 11.6161H11.2103V4.96327H13.0631ZM12.7847 6.10567V10.4737H13.3031C13.8215 10.4737 14.2151 10.3137 14.4839 9.99367C14.7527 9.66727 14.8871 9.08807 14.8871 8.25607C14.8871 7.68647 14.8199 7.24487 14.6855 6.93126C14.5511 6.61767 14.3687 6.40327 14.1383 6.28807C13.9079 6.16647 13.6231 6.10567 13.2839 6.10567H12.7847Z" fill="#454B57"/>
</svg>
